PathFileType	4	(X/Y/Z)	D:\TRACE\v60_Jaco2_6-2-23\BothDRS_Motion3_4-platform.trc
DataRate	CameraRate	NumFrames	NumMarkers	Units	OrigDataRate	OrigDataStartFrame	OrigNumFrames
100.00	100.00	      23	5	mm	100.00	5251	      7000
Frame#	Time	Left_Front			Right_Front			Left_Aft			Right_Aft			Post			
		X1	Y1	Z1	X2	Y2	Z2	X3	Y3	Z3	X4	Y4	Z4	X5	Y5	Z5	

5251	52.500	-771.63593	-29.22915	-658.85803	799.38330	-30.36233	-636.22131	-702.20795	37.62747	475.84973	712.02002	39.67479	578.66901	24.95146	1248.02954	-1046.31213	
5252	52.510	-771.01648	-29.16293	-658.91040	799.69183	-30.32488	-636.30499	-701.88660	37.68633	475.80139	712.42255	39.74207	578.64911	25.14723	1248.05286	-1046.17004	
5253	52.520	-770.65942	-29.09278	-658.83527	799.94916	-30.24962	-636.39465	-701.55365	37.77147	475.83246	713.04919	39.86293	578.60370	25.41653	1248.07104	-1046.06592	
5254	52.530	-770.21869	-29.25192	-658.71460	800.36206	-30.43415	-636.36230	-701.19519	37.75589	475.77322	713.30225	39.84102	578.56598	25.63483	1248.09387	-1046.00452	
5255	52.540	-769.92871	-29.29242	-658.57379	800.67432	-30.39708	-636.38788	-700.66443	37.69664	475.78253	713.56879	39.76916	578.52930	26.05595	1248.16748	-1045.76001	
5256	52.550	-769.52289	-29.42577	-658.53961	801.16394	-30.23798	-636.42651	-700.39954	37.62325	475.80109	713.88544	39.68262	578.74261	26.58298	1248.10437	-1045.58044	
5257	52.560	-769.13776	-29.20017	-658.63995	801.55267	-30.26054	-636.42590	-700.01172	37.64227	475.74768	714.29919	39.71246	578.78857	27.25768	1248.35315	-1045.68262	
5258	52.570	-768.70715	-28.99594	-658.57837	801.85968	-30.33537	-636.44159	-699.60071	37.70750	475.77444	714.82495	39.70866	578.71375	27.82560	1248.40308	-1045.89783	
5259	52.580	-768.49030	-29.00496	-658.58008	802.23065	-30.31442	-636.40369	-699.26385	37.81623	475.77768	715.37122	39.69192	578.73193	28.02031	1248.44666	-1046.04907	
5260	52.590	-768.29645	-28.84348	-658.65857	802.65405	-30.16435	-636.38354	-698.90125	37.71253	475.79575	715.68164	39.75537	578.71942	28.30956	1248.46948	-1046.23755	
5261	52.600	-767.57220	-29.07285	-658.58295	802.99261	-30.07033	-636.41156	-698.64520	37.64681	475.77728	715.84894	39.64634	578.65778	28.77803	1248.54468	-1046.50488	
5262	52.610	-767.48541	-28.89073	-658.72314	803.35999	-29.89478	-636.39496	-698.26196	37.47747	475.82309	716.27209	39.63768	578.71362	29.18551	1248.65369	-1046.64172	
5263	52.620	-766.97595	-28.75424	-658.64252	803.77747	-29.77261	-636.42126	-697.59473	37.16778	475.91553	716.80829	39.41783	578.80426	29.44664	1248.71802	-1046.66504	
5264	52.630	-766.40991	-28.66307	-658.57208	804.14044	-29.59642	-636.32916	-697.31641	37.22642	476.07623	717.43542	39.47779	578.93030	29.83121	1248.90833	-1046.60315	
5265	52.640	-766.03802	-28.39271	-658.43524	804.51337	-29.39062	-636.27350	-696.98767	37.24496	476.09366	717.35498	39.08746	578.94391	29.78133	1249.04712	-1046.14709	
5266	52.650	-766.00183	-27.78696	-658.48553	804.83691	-29.19742	-636.26801	-696.54279	37.06715	476.10089	717.72577	38.83849	578.93274	29.89054	1249.41650	-1045.93835	
5267	52.660	-765.84784	-27.71239	-658.46753	805.12549	-29.06814	-636.17993	-696.25446	36.94995	476.19492	718.00671	38.74550	578.96228	30.71766	1250.13257	-1045.57471	
5268	52.670	-765.44324	-27.47656	-658.48126	805.44452	-28.90193	-636.10748	-695.97778	36.78054	476.19836	718.27850	38.61542	579.04858	31.09564	1250.39478	-1044.81665	
5269	52.680	-765.04718	-27.20480	-658.53845	805.78680	-28.77577	-636.08618	-695.36340	36.46612	476.25476	718.53986	38.44593	579.13330	31.30957	1250.58496	-1044.16833	
5270	52.690	-764.89185	-27.17403	-658.57953	806.08832	-28.65635	-636.09894	-695.71600	36.92763	476.13623	718.81091	38.32349	579.16852	31.56634	1250.79858	-1043.34070	
5271	52.700	-764.75433	-27.01491	-658.50519	806.30920	-28.51503	-636.12250	-695.22650	36.59534	476.28778	719.36768	38.43254	579.23944	32.00180	1251.02710	-1042.39001	
5272	52.710	-764.36847	-26.69557	-658.25702	806.59406	-28.39364	-636.14990	-694.97198	36.57749	476.14343	719.63879	38.23327	579.25153	32.13245	1251.32446	-1041.72900	
5273	52.720	-764.18640	-26.53483	-658.15967	806.94891	-28.22246	-636.09937	-694.57281	36.52476	476.16830	719.98914	38.01543	579.29187	32.25710	1251.66296	-1040.96838	
